<svg id="ic-users-arrow-down" xmlns="http://www.w3.org/2000/svg" width="35" height="35" viewBox="0 0 35 35">
  <rect id="Retângulo_264" data-name="Retângulo 264" width="35" height="35" fill="none"/>
  <g id="Vrstva_431" data-name="Vrstva 431" transform="translate(2.917 1.093)">
    <path id="Caminho_540" data-name="Caminho 540" d="M12.208,8.042a4.375,4.375,0,1,1,4.375,4.375A4.375,4.375,0,0,1,12.208,8.042Zm-.671,5.265A14.583,14.583,0,0,0,2,27v1.458a1.458,1.458,0,1,0,2.917,0V27A11.667,11.667,0,0,1,16.583,15.334a7.292,7.292,0,1,0-5.046-2.027Zm5.046,11.506a5.833,5.833,0,1,1,5.833,5.833A5.833,5.833,0,0,1,16.583,24.813Zm5.833-8.75a8.75,8.75,0,1,0,8.75,8.75A8.75,8.75,0,0,0,22.417,16.063Zm3.952,6.825a1.458,1.458,0,0,1,0,2.056l-2.712,2.713a1.75,1.75,0,0,1-2.479,0l-2.712-2.713a1.459,1.459,0,0,1,2.071-2.056l1.881,1.881L24.3,22.888a1.458,1.458,0,0,1,2.071,0Z" transform="translate(-2 -0.749)" fill="#00d8ff" fill-rule="evenodd"/>
  </g>
</svg>
