<svg id="ic-users-add" xmlns="http://www.w3.org/2000/svg" width="35" height="35" viewBox="0 0 35 35">
  <rect id="Retângulo_263" data-name="Retângulo 263" width="35" height="35" fill="none"/>
  <g id="Vrstva_430" data-name="Vrstva 430" transform="translate(2.917 1.093)">
    <path id="Caminho_539" data-name="Caminho 539" d="M12.208,8.042a4.375,4.375,0,1,1,4.375,4.375A4.375,4.375,0,0,1,12.208,8.042Zm-.671,5.265A14.583,14.583,0,0,0,2,27v1.458a1.458,1.458,0,1,0,2.917,0V27A11.667,11.667,0,0,1,16.583,15.334a7.292,7.292,0,1,0-5.046-2.027Zm10.879,5.673a5.833,5.833,0,1,0,5.833,5.833A5.833,5.833,0,0,0,22.417,18.979Zm-8.75,5.833a8.75,8.75,0,1,1,8.75,8.75A8.75,8.75,0,0,1,13.667,24.813Zm4.375-.365A1.458,1.458,0,0,1,19.5,22.99h1.458V21.531a1.458,1.458,0,0,1,2.917,0V22.99h1.458a1.458,1.458,0,1,1,0,2.917H23.875v1.458a1.458,1.458,0,0,1-2.917,0V25.906H19.5A1.458,1.458,0,0,1,18.042,24.448Z" transform="translate(-2 -0.749)" fill="#00d8ff" fill-rule="evenodd"/>
  </g>
</svg>
