<svg xmlns="http://www.w3.org/2000/svg" width="24.573" height="32.763" viewBox="0 0 24.573 32.763">
  <path id="file-alt" d="M18.429,15.87v1.792a.77.77,0,0,1-.768.768H6.911a.77.77,0,0,1-.768-.768V15.87a.77.77,0,0,1,.768-.768H17.662A.77.77,0,0,1,18.429,15.87Zm-.768,4.607H6.911a.77.77,0,0,0-.768.768v1.792a.77.77,0,0,0,.768.768H17.662a.77.77,0,0,0,.768-.768V21.245A.77.77,0,0,0,17.662,20.477ZM24.573,8.44V29.692A3.072,3.072,0,0,1,21.5,32.763H3.072A3.072,3.072,0,0,1,0,29.692V3.072A3.072,3.072,0,0,1,3.072,0H16.132A3.072,3.072,0,0,1,18.3.9L23.67,6.271A3.061,3.061,0,0,1,24.573,8.44ZM16.382,3.321v4.87h4.87l-4.87-4.87ZM21.5,29.692V11.262H14.846A1.532,1.532,0,0,1,13.31,9.727V3.072H3.072v26.62Z" fill="#00d8ff"/>
</svg>
