<svg xmlns="http://www.w3.org/2000/svg" xmlns:xlink="http://www.w3.org/1999/xlink" width="90" height="90" viewBox="0 0 90 90">
  <defs>
    <clipPath id="clip-path">
      <rect id="Retângulo_265" data-name="Retângulo 265" width="90" height="90" fill="#fff"/>
    </clipPath>
  </defs>
  <g id="github-background" transform="translate(0 40)">
    <g id="Grupo_14" data-name="Grupo 14" transform="translate(0 -40)" clip-path="url(#clip-path)">
      <path id="Caminho_594" data-name="Caminho 594" d="M44.842-25.667C20.067-25.667,0-5.936,0,18.4A44.138,44.138,0,0,0,30.66,60.205c2.242.415,3.064-.949,3.064-2.119,0-1.046-.037-3.819-.056-7.492-12.474,2.657-15.1-5.912-15.1-5.912-2.04-5.086-4.989-6.446-4.989-6.446-4.062-2.732.314-2.676.314-2.676,4.5.306,6.868,4.54,6.868,4.54,4,6.737,10.5,4.791,13.06,3.666a9.33,9.33,0,0,1,2.84-5.893C26.7,36.772,16.233,32.982,16.233,16.1A16.835,16.835,0,0,1,20.848,4.276c-.5-1.113-2.018-5.594.392-11.662,0,0,3.755-1.181,12.331,4.518a42.991,42.991,0,0,1,22.421,0c8.52-5.7,12.275-4.518,12.275-4.518,2.41,6.068.9,10.549.448,11.662a16.9,16.9,0,0,1,4.6,11.823c0,16.928-10.482,20.653-20.459,21.737,1.569,1.323,3.027,4.025,3.027,8.154,0,5.9-.056,10.635-.056,12.066,0,1.155.785,2.534,3.083,2.093A44,44,0,0,0,89.683,18.4C89.683-5.936,69.605-25.667,44.842-25.667Z" transform="translate(0 27.535)" fill="#fff"/>
    </g>
  </g>
</svg>
