<svg id="ic-actions-bag" xmlns="http://www.w3.org/2000/svg" width="24" height="24" viewBox="0 0 24 24">
  <rect id="Retângulo_26" data-name="Retângulo 26" width="24" height="24" fill="none"/>
  <g id="ic-actions-bag-2" data-name="ic-actions-bag">
    <g id="Layer">
      <g id="Vrstva_107" data-name="Vrstva 107">
        <path id="Caminho_67" data-name="Caminho 67" d="M20,6H18V5a3,3,0,0,0-3-3H9A3,3,0,0,0,6,5V6H4A3,3,0,0,0,1,9V19a3,3,0,0,0,3,3H20a3,3,0,0,0,3-3V9A3,3,0,0,0,20,6ZM8,5A1,1,0,0,1,9,4h6a1,1,0,0,1,1,1V6H8ZM21,19a1,1,0,0,1-1,1H4a1,1,0,0,1-1-1V9A1,1,0,0,1,4,8H20a1,1,0,0,1,1,1Z" fill="#00d8ff" fill-rule="evenodd"/>
      </g>
    </g>
    <g id="Layer-2" data-name="Layer">
      <g id="Vrstva_17" data-name="Vrstva 17">
        <path id="Caminho_68" data-name="Caminho 68" d="M20,6H18V5a3,3,0,0,0-3-3H9A3,3,0,0,0,6,5V6H4A3,3,0,0,0,1,9V19a3,3,0,0,0,3,3H20a3,3,0,0,0,3-3V9A3,3,0,0,0,20,6ZM8,5A1,1,0,0,1,9,4h6a1,1,0,0,1,1,1V6H8ZM21,19a1,1,0,0,1-1,1H4a1,1,0,0,1-1-1V9A1,1,0,0,1,4,8H20a1,1,0,0,1,1,1Z" fill="#00d8ff" fill-rule="evenodd"/>
      </g>
    </g>
  </g>
</svg>
