<svg id="ic-contact-map-pin" xmlns="http://www.w3.org/2000/svg" width="24" height="24" viewBox="0 0 24 24">
  <rect id="Retângulo_88" data-name="Retângulo 88" width="24" height="24" fill="none"/>
  <g id="Layer" transform="translate(0.01 0.04)">
    <g id="Vrstva_146" data-name="Vrstva 146">
      <path id="Caminho_160" data-name="Caminho 160" d="M7.2,17c1.61,2.56,3.34,4.8,3.86,5.46a1.19,1.19,0,0,0,1.88,0c.52-.66,2.25-2.9,3.86-5.46a31.57,31.57,0,0,0,2.18-4,9.56,9.56,0,0,0,1-3.73,8.14,8.14,0,0,0-8-8.27A8.14,8.14,0,0,0,4,9.33a9.56,9.56,0,0,0,1,3.73A31.57,31.57,0,0,0,7.2,17ZM12,3a6.14,6.14,0,0,1,6,6.27,7.78,7.78,0,0,1-.84,2.91A30,30,0,0,1,15.11,16C14,17.76,12.76,19.42,12,20.43c-.76-1-2-2.67-3.11-4.48a30,30,0,0,1-2.05-3.71A7.78,7.78,0,0,1,6,9.33a6.14,6.14,0,0,1,6-6.27Z" fill="#00d8ff"/>
      <circle id="Elipse_9" data-name="Elipse 9" cx="2" cy="2" r="2" transform="translate(10 7.06)" fill="#00d8ff"/>
    </g>
  </g>
</svg>
