<svg xmlns="http://www.w3.org/2000/svg" width="26.27" height="35.026" viewBox="0 0 26.27 35.026">
  <path id="code-branch" d="M26.27,9.851a5.473,5.473,0,1,0-7.012,5.254,4.21,4.21,0,0,1-.753,2.524c-1.054,1.313-3.373,1.532-5.829,1.758a16.513,16.513,0,0,0-5.562,1.156V10.693a5.473,5.473,0,1,0-3.284,0V24.327a5.485,5.485,0,1,0,3.612.123,2.408,2.408,0,0,1,1.019-.917,13.764,13.764,0,0,1,4.522-.876c2.887-.267,6.157-.575,8.086-2.969a7.366,7.366,0,0,0,1.478-4.645A5.5,5.5,0,0,0,26.27,9.851ZM5.473,4.378A1.095,1.095,0,1,1,4.378,5.473,1.1,1.1,0,0,1,5.473,4.378Zm0,26.27a1.095,1.095,0,1,1,1.095-1.095A1.1,1.1,0,0,1,5.473,30.648ZM20.8,8.757A1.095,1.095,0,1,1,19.7,9.851,1.1,1.1,0,0,1,20.8,8.757Z" fill="#00d8ff"/>
</svg>
